<svg xmlns="http://www.w3.org/2000/svg" version="1.1" xmlns:xlink="http://www.w3.org/1999/xlink" width="512" height="512" x="0" y="0" viewBox="0 0 256 256" style="enable-background:new 0 0 512 512" xml:space="preserve"><g><path fill="#58595b" d="M199.31 188.18v29.7c0 5.53-4.48 10-10 10H66.69c-5.52 0-10-4.47-10-10v-29.7c0-22.09 17.91-40 40-40h62.62c22.09 0 40 17.91 40 40z" opacity="1" data-original="#58595b"></path><path fill="#fcc4ae" d="M116.471 126.744v27.666c0 2.201.634 4.355 1.826 6.207 4.537 7.048 14.869 7.048 19.406 0a11.467 11.467 0 0 0 1.826-6.207v-27.666z" opacity="1" data-original="#fcc4ae"></path><path fill="#58595b" d="M148.788 227.883h-41.575v-79.981c0-3.803 4.078-6.214 7.41-4.381l13.377 7.36 13.378-7.36c3.332-1.833 7.41.577 7.41 4.381z" opacity="1" data-original="#58595b"></path><path fill="#414042" d="M166.474 148.823c7.893 7.307 12.834 17.756 12.834 29.36v29.7c0 5.523-4.477 10-10 10H56.692c0 5.523 4.477 10 10 10h122.616c5.523 0 10-4.477 10-10v-29.7c0-19.645-14.162-35.982-32.834-39.36z" opacity="1" data-original="#414042"></path><path fill="#f2ad97" d="M116.471 135.638a36.378 36.378 0 0 0 11.528 1.872c4.032 0 7.906-.664 11.53-1.873v-8.893h-23.057z" opacity="1" data-original="#f2ad97"></path><circle cx="91.844" cy="96.866" r="11.646" fill="#ffd2c0" opacity="1" data-original="#ffd2c0"></circle><circle cx="91.844" cy="96.866" r="6.692" fill="#f2ad97" opacity="1" data-original="#f2ad97"></circle><circle cx="164.156" cy="96.866" r="11.646" fill="#ffd2c0" opacity="1" data-original="#ffd2c0"></circle><circle cx="164.156" cy="96.866" r="6.692" fill="#f2ad97" opacity="1" data-original="#f2ad97"></circle><path fill="#ffd2c0" d="M164.22 77.49v18.8c0 14.1-8.06 26.32-19.83 32.31-1.56.79-3.18 1.47-4.85 2.04-1.36.45-2.76.83-4.18 1.12a36.458 36.458 0 0 1-14.72 0c-1.42-.29-2.82-.67-4.18-1.12-1.67-.57-3.29-1.25-4.85-2.04-11.77-5.99-19.83-18.21-19.83-32.31v-18.8c0-20 16.22-36.22 36.22-36.22 10 0 19.06 4.05 25.61 10.61s10.61 15.61 10.61 25.61z" opacity="1" data-original="#ffd2c0"></path><path fill="#f2ad97" d="M91.78 77.489v9.666c14.114-9.422 23.143-25.497 23.087-43.122l-.002-.308c-13.51 5.26-23.085 18.394-23.085 33.764z" opacity="1" data-original="#f2ad97"></path><path fill="#fcc4ae" d="M150.988 49.501a36.072 36.072 0 0 1 8.231 22.988V91.29c0 20.003-16.216 36.219-36.219 36.219a36.07 36.07 0 0 1-22.988-8.231c6.643 8.078 16.713 13.231 27.988 13.231 20.003 0 36.219-16.216 36.219-36.219V77.489c0-11.275-5.153-21.345-13.231-27.988z" opacity="1" data-original="#fcc4ae"></path><path fill="#7c3108" d="M114.867 34.034c.062 19.232-10.695 36.619-27.07 45.529-3.464 1.885-7.717-.828-7.37-4.757 1.177-13.345 7.108-25.559 16.431-34.162a47.313 47.313 0 0 1 17.86-10.424c.096 1.26.149 2.528.149 3.814z" opacity="1" data-original="#7c3108"></path><path fill="#8c3f0a" d="M172.631 76.39c-30.362 15.674-68.533-2.216-75.774-35.746 5.009-4.639 10.994-8.222 17.746-10.387 28.227-9.163 56.356 12.318 60.643 41.028a4.949 4.949 0 0 1-2.615 5.105z" opacity="1" data-original="#8c3f0a"></path><path fill="#995222" d="M148.98 78.13c-15.77 0-30.74-7.57-40.04-20.23-.66-.89-.46-2.15.42-2.8.86-.63 2.17-.42 2.8.43 8.55 11.65 22.31 18.6 36.81 18.6 3.33 0 6.62-.37 9.8-1.1h.01c1.07-.24 2.15.45 2.39 1.5.25 1.08-.43 2.15-1.5 2.4-3.47.8-7.07 1.2-10.69 1.2zM106.4 51.89c-.77 0-1.46-.42-1.8-1.11a2.01 2.01 0 0 1 .91-2.68c.97-.48 2.2-.06 2.68.9.49.99.08 2.19-.91 2.68-.27.14-.57.21-.88.21z" opacity="1" data-original="#995222"></path><path fill="#7c3108" d="M175.245 71.286c-4.286-28.71-32.416-50.192-60.643-41.028-6.752 2.165-12.737 5.748-17.746 10.387a53.9 53.9 0 0 0 .62 2.558 47.227 47.227 0 0 1 7.125-2.945c27.671-8.983 55.249 11.484 60.362 39.341a51.683 51.683 0 0 0 7.666-3.208 4.947 4.947 0 0 0 2.616-5.105z" opacity="1" data-original="#7c3108"></path><path fill="#6d2e03" d="M175.245 71.286c-4.286-28.71-32.416-50.192-60.643-41.028-6.752 2.165-12.737 5.748-17.746 10.387.06.276.121.551.185.825a47.148 47.148 0 0 1 12.561-6.212c28.227-9.163 56.357 12.318 60.643 41.028.063.42.068.839.024 1.249.792-.36 1.58-.741 2.362-1.145a4.946 4.946 0 0 0 2.614-5.104z" opacity="1" data-original="#6d2e03"></path><path fill="#f1f2f2" d="M100.978 82.195a2.503 2.503 0 0 0-2.5 2.5v8.435c0 4.283 3.484 7.767 7.768 7.767h9.466c4.282 0 7.767-3.484 7.767-7.767v-8.435c0-1.378-1.121-2.5-2.5-2.5z" opacity="1" data-original="#f1f2f2"></path><path fill="#808285" d="M115.367 91.546a4.388 4.388 0 1 1-8.776 0 4.388 4.388 0 0 1 8.776 0z" opacity="1" data-original="#808285"></path><path fill="#f1f2f2" d="M135.021 82.195a2.503 2.503 0 0 0-2.5 2.5v8.435c0 4.283 3.484 7.767 7.767 7.767h9.466c4.283 0 7.768-3.484 7.768-7.767v-8.435c0-1.378-1.121-2.5-2.5-2.5z" opacity="1" data-original="#f1f2f2"></path><path fill="#808285" d="M149.409 91.546a4.388 4.388 0 1 1-8.776 0 4.388 4.388 0 0 1 8.776 0z" opacity="1" data-original="#808285"></path><path fill="#58595b" d="M91.78 83.195h5.197v3H91.78zM125.743 88.023l-2.121-2.121a6.176 6.176 0 0 1 4.395-1.822c1.66 0 3.222.647 4.396 1.822l-2.121 2.121c-1.217-1.217-3.332-1.217-4.549 0z" opacity="1" data-original="#58595b"></path><path fill="#58595b" d="M115.712 103.896h-9.466c-5.938 0-10.768-4.83-10.768-10.767v-8.435c0-3.033 2.468-5.5 5.5-5.5h20c3.032 0 5.5 2.467 5.5 5.5v8.435c0 5.937-4.83 10.767-10.766 10.767zm-14.734-21.701a2.503 2.503 0 0 0-2.5 2.5v8.435c0 4.283 3.484 7.767 7.768 7.767h9.466c4.282 0 7.767-3.484 7.767-7.767v-8.435c0-1.378-1.121-2.5-2.5-2.5zM159.021 83.195h5.197v3h-5.197z" opacity="1" data-original="#58595b"></path><path fill="#58595b" d="M149.754 103.896h-9.466c-5.937 0-10.767-4.83-10.767-10.767v-8.435c0-3.033 2.468-5.5 5.5-5.5h20c3.032 0 5.5 2.467 5.5 5.5v8.435c0 5.937-4.83 10.767-10.767 10.767zm-14.733-21.701a2.503 2.503 0 0 0-2.5 2.5v8.435c0 4.283 3.484 7.767 7.767 7.767h9.466c4.283 0 7.768-3.484 7.768-7.767v-8.435c0-1.378-1.121-2.5-2.5-2.5z" opacity="1" data-original="#58595b"></path><path fill="#478cf7" d="M117.144 183.294a2 2 0 0 1-2-2V154.41a2 2 0 0 1 4 0v26.884a2 2 0 0 1-2 2z" opacity="1" data-original="#478cf7"></path><path fill="#fff" d="M120.708 189.047h-7.129a1.281 1.281 0 0 1-1.281-1.281v-6.587a4.846 4.846 0 0 1 9.692 0v6.587c0 .707-.574 1.281-1.282 1.281z" opacity="1" data-original="#fff"></path><path fill="#478cf7" d="M138.855 183.294a2 2 0 0 1-2-2V154.41a2 2 0 0 1 4 0v26.884a2 2 0 0 1-2 2z" opacity="1" data-original="#478cf7"></path><path fill="#fff" d="M142.42 189.047h-7.129a1.281 1.281 0 0 1-1.281-1.281v-6.587a4.846 4.846 0 1 1 9.692 0v6.587a1.282 1.282 0 0 1-1.282 1.281z" opacity="1" data-original="#fff"></path><path fill="#e59076" d="M134.44 109.715c.996 0 1.751.93 1.52 1.9a8.186 8.186 0 0 1-15.922 0c-.23-.969.524-1.9 1.521-1.9z" opacity="1" data-original="#e59076"></path><path fill="#478cf7" d="M233.505 169.208h-81.993a2.104 2.104 0 0 0-2.103 2.103v62.903c0 1.161.941 2.103 2.103 2.103h81.993a2.104 2.104 0 0 0 2.103-2.103v-62.903a2.104 2.104 0 0 0-2.103-2.103z" opacity="1" data-original="#478cf7"></path><path fill="#ffa91a" d="M233.505 169.208h-81.993a2.104 2.104 0 0 0-2.103 2.103v6.569h86.198v-6.569a2.103 2.103 0 0 0-2.102-2.103z" opacity="1" data-original="#ffa91a"></path><circle cx="159.377" cy="173.544" r="1.791" fill="#fff" opacity="1" data-original="#fff"></circle><path fill="#fff" d="M168.092 173.544a1.791 1.791 0 1 1-3.582 0 1.791 1.791 0 0 1 3.582 0z" opacity="1" data-original="#fff"></path><circle cx="173.223" cy="173.544" r="1.791" fill="#fff" opacity="1" data-original="#fff"></circle><circle cx="225.64" cy="173.544" r="1.791" fill="#fff" opacity="1" data-original="#fff"></circle><path fill="#fff" d="M178.936 202.261c-.353 0-.705-.135-.975-.404l-7.488-7.488a1.38 1.38 0 0 1 0-1.95l7.488-7.488a1.379 1.379 0 0 1 1.949 1.949l-6.513 6.513 6.513 6.513a1.377 1.377 0 0 1 0 1.949 1.36 1.36 0 0 1-.974.406zM206.08 202.261a1.377 1.377 0 0 1-.975-2.353l6.513-6.513-6.513-6.513a1.379 1.379 0 0 1 1.949-1.949l7.488 7.488a1.38 1.38 0 0 1 0 1.95l-7.488 7.488a1.373 1.373 0 0 1-.974.402zM228.258 211.337h-49.486a1.38 1.38 0 0 1 0-2.758h49.486a1.38 1.38 0 0 1 0 2.758z" opacity="1" data-original="#fff"></path><path fill="#ffa91a" d="M173.714 211.337h-16.955a1.38 1.38 0 0 1 0-2.758h16.955a1.38 1.38 0 0 1 0 2.758zM228.258 220.475h-32.352a1.38 1.38 0 0 1 0-2.758h32.352a1.38 1.38 0 0 1 0 2.758z" opacity="1" data-original="#ffa91a"></path><path fill="#fcc4ae" d="M190.332 220.475h-33.573a1.38 1.38 0 0 1 0-2.758h33.573a1.38 1.38 0 0 1 0 2.758z" opacity="1" data-original="#fcc4ae"></path><path fill="#ffa91a" d="M228.258 229.614H202.74a1.38 1.38 0 0 1 0-2.758h25.518a1.38 1.38 0 0 1 0 2.758z" opacity="1" data-original="#ffa91a"></path><path fill="#fff" d="M197.041 229.614h-19.817a1.38 1.38 0 0 1 0-2.758h19.817a1.38 1.38 0 0 1 0 2.758z" opacity="1" data-original="#fff"></path><path fill="#ffa91a" d="M170.308 229.614h-13.549a1.38 1.38 0 0 1 0-2.758h13.549a1.38 1.38 0 0 1 0 2.758z" opacity="1" data-original="#ffa91a"></path><path fill="#f1f2f2" d="M192.508 187.175a6.22 6.22 0 1 0 0 12.44 6.22 6.22 0 0 0 0-12.44zm0 9.556a3.337 3.337 0 1 1 .001-6.673 3.337 3.337 0 0 1-.001 6.673z" opacity="1" data-original="#f1f2f2"></path><path fill="#d1d3d4" d="m198.566 191.98 1.512-1.334a.637.637 0 0 0 .13-.797l-.804-1.393a.64.64 0 0 0-.756-.286l-1.928.648a6.212 6.212 0 0 1 1.846 3.162zM184.938 190.646l1.512 1.334a6.208 6.208 0 0 1 1.846-3.162l-1.928-.648a.638.638 0 0 0-.756.286l-.804 1.393a.637.637 0 0 0 .13.797zM192.508 187.175a6.22 6.22 0 0 1 1.821.271l-.392-1.939a.638.638 0 0 0-.625-.512h-1.609a.637.637 0 0 0-.625.512l-.392 1.939a6.237 6.237 0 0 1 1.822-.271zM200.029 196.058l-1.455-1.284a6.214 6.214 0 0 1-1.8 3.146l1.825.614a.638.638 0 0 0 .756-.286l.804-1.393a.635.635 0 0 0-.13-.797zM192.508 199.614a6.22 6.22 0 0 1-1.821-.271l.392 1.939c.06.298.322.512.625.512h1.609a.637.637 0 0 0 .625-.512l.392-1.939a6.199 6.199 0 0 1-1.822.271zM186.442 194.774l-1.455 1.284a.637.637 0 0 0-.13.797l.804 1.393a.64.64 0 0 0 .756.286l1.825-.614a6.21 6.21 0 0 1-1.8-3.146z" opacity="1" data-original="#d1d3d4"></path></g></svg>