
<svg xmlns="http://www.w3.org/2000/svg" version="1.1" xmlns:xlink="http://www.w3.org/1999/xlink" width="512" height="512" x="0" y="0" viewBox="0 0 64 64" style="enable-background:new 0 0 512 512" xml:space="preserve" class=""><g><circle cx="32" cy="32" r="31" fill="#f1ebff" opacity="1" data-original="#f1ebff" class=""></circle><circle cx="32" cy="32" r="26" fill="#ffffff" opacity="1" data-original="#ffffff" class=""></circle><circle cx="32" cy="32" r="25" fill="#eaccfc" opacity="1" data-original="#eaccfc" class=""></circle><path fill="#64238e" d="M41.69 19.27c-2.8-2.14-6.15-3.26-9.69-3.26-1.24 0-2.47.14-3.65.43-5.47 1.27-9.92 5.38-11.6 10.74-.5 1.56-.75 3.18-.75 4.83 0 1.87.32 3.71.96 5.47 2.29 6.3 8.33 10.53 15.04 10.53 2.86 0 5.67-.77 8.12-2.21 1.11-.66 2.13-1.44 3.04-2.33 3.12-3.03 4.84-7.1 4.84-11.46 0-5.04-2.3-9.68-6.31-12.73zm-14.24-1.79s-.04.05-.07.08l-.11.14c-.04.06-.09.12-.13.18l-.09.12c-.05.07-.09.13-.13.2-.02.04-.05.07-.07.11-.06.11-.12.21-.17.33-.17.35-.26.72-.36 1.07-.12.47-.24.91-.5 1.25-.4.52-1.08.76-1.8 1.01-.14.05-.27.1-.41.15-1.28.5-2.02 1.28-2.08 2.18-.07 1.14.93 1.99 1.95 2.25.65.17 1.32.16 1.96.15h.8c.57.02 1.6.16 2.08.86.16.24.25.53.34.85.12.41.25.83.54 1.2.38.5.93.74 1.46.97.3.13.57.25.82.42.13.09.25.19.36.29.76.76.97 2 .83 2.99s-.59 1.93-1.1 2.85c-.35-.56-1-1.04-1.92-1.39l-.24-.09c-.82-.31-1.67-.62-1.96-1.3-.1-.23-.14-.5-.18-.78-.07-.47-.15-1-.53-1.42-.09-.1-.2-.19-.32-.27l-.12-.06a1.39 1.39 0 0 0-.28-.12c-.05-.02-.11-.03-.16-.04-.1-.02-.2-.04-.32-.06-.06 0-.13-.01-.2-.01-.06 0-.1-.01-.16-.01-.1 0-.21 0-.32.01-.13 0-.26.02-.39.04-.41.04-.8.08-1.14 0-.5-.14-.97-.56-1.39-1.26l-.3-.54c-.26-.49-.53-.99-.92-1.41-.09-.1-.19-.19-.29-.28-.03-.03-.07-.06-.11-.09-.07-.06-.14-.12-.22-.17-.05-.03-.09-.06-.14-.09-.07-.05-.15-.09-.22-.14-.05-.03-.11-.06-.16-.08-.08-.04-.16-.08-.24-.11-.06-.03-.12-.05-.18-.07-.08-.03-.17-.06-.26-.09-.06-.02-.13-.04-.19-.06-.09-.03-.19-.05-.28-.08-.07-.02-.13-.03-.2-.05-.1-.02-.21-.04-.32-.06-.07-.01-.13-.03-.2-.04h-.05a15.21 15.21 0 0 1 9.81-9.48zm-9.62 20.1s.07-.03.11-.04l.12-.03c.16-.04.31-.08.47-.1 1.6-.25 3.38.22 5.01 1.31.71.48 1.38 1.07 2.03 1.63.39.34.79.68 1.19 1.01 1.43 1.14 2.68 1.74 3.94 1.89.93.11 1.85-.04 2.74-.18.87-.14 1.69-.27 2.5-.18a4.6 4.6 0 0 1 3.09 1.78c.13.18.24.36.34.56.01.02.02.05.03.07a15.193 15.193 0 0 1-7.41 1.93c-6.25 0-11.89-3.86-14.17-9.64zm22.26 7.31s-.03-.04-.04-.06a4.57 4.57 0 0 0-.39-.62 5.362 5.362 0 0 0-3.63-2.1c-.21-.02-.43-.03-.64-.03h-.14c-.17 0-.35.01-.52.03-.07 0-.14.01-.2.02-.15.02-.3.03-.44.05-.06 0-.13.02-.19.03l-.57.09c-.88.14-1.7.27-2.53.18-1.11-.13-2.23-.68-3.54-1.72-.4-.32-.78-.65-1.17-.99-.67-.58-1.36-1.18-2.11-1.69-1.8-1.2-3.77-1.71-5.57-1.43-.18.03-.37.07-.55.12-.05.01-.1.03-.15.04s-.1.03-.15.04a15.235 15.235 0 0 1-.16-9.12c.04 0 .07 0 .11.01l.21.03c.09.02.18.03.26.05.07.01.13.03.19.04l.24.06c.06.02.12.03.18.05.07.02.15.05.22.08.06.02.11.04.16.06.07.03.13.06.2.09.05.02.1.05.15.07.06.03.13.07.19.11.04.03.09.05.13.08.06.04.12.09.18.14l.1.07c.09.08.17.15.25.24.33.35.56.79.81 1.25.1.19.2.38.31.57.53.88 1.15 1.42 1.86 1.62.48.12.96.07 1.42.02.12-.01.25-.03.37-.03.61-.04 1.01.05 1.24.3.22.24.27.6.33 1.01.05.32.1.65.23.97.42.99 1.47 1.38 2.4 1.73l.24.09c.52.19 1.72.74 1.69 1.63 0 .18.12.33.29.38.03 0 .07.01.1.01h.01c.06 0 .12-.02.17-.05.01 0 .02-.01.03-.02.05-.03.1-.08.13-.13.09-.15.18-.31.26-.46.17-.31.35-.62.51-.94v-.02c.24-.47.45-.95.61-1.45 0-.01 0-.03.01-.04.05-.16.09-.31.13-.47.04-.17.08-.35.1-.53.04-.3.05-.61.04-.93v-.16c0-.12-.03-.23-.05-.35l-.03-.22c-.02-.13-.06-.25-.1-.37-.02-.06-.03-.12-.05-.18-.04-.11-.09-.22-.13-.33-.03-.07-.05-.14-.08-.2-.03-.05-.06-.1-.09-.16-.16-.28-.34-.55-.57-.78-.14-.14-.29-.26-.46-.37-.3-.2-.62-.34-.94-.48-.46-.2-.89-.39-1.15-.73-.2-.26-.3-.59-.41-.95-.11-.35-.22-.72-.44-1.05-.64-.94-1.82-1.17-2.7-1.2h-.84c-.62 0-1.2.02-1.75-.12-.69-.18-1.4-.75-1.36-1.45.05-.79 1.02-1.28 1.58-1.5.13-.05.26-.09.39-.14.76-.27 1.62-.57 2.17-1.27.35-.47.5-1 .63-1.52.09-.33.17-.65.31-.94.18-.39.45-.73.75-1.09.1-.12.2-.25.3-.38l.09-.12.16-.22c1.07-.25 2.19-.37 3.32-.37 3.27 0 6.37 1.02 8.99 2.94-.02.07-.04.14-.07.2l-.06.15c-.07.16-.15.31-.25.45-.25.38-.58.71-.93 1.06-.3.29-.6.6-.87.94-.59.77-1.04 2.01-.37 2.99.76 1.1 2.33.98 3.27.9.47-.03 2.01-.06 2.3.86.17.56-.26 1.17-.78 1.44-.61.31-1.35.32-2.11.31-.78-.03-1.66-.05-2.46.29-.16.07-.31.15-.45.24-.99.66-1.58 1.94-1.36 3.12.27 1.38 1.51 2.45 2.9 2.5.41.02.8-.05 1.19-.11.58-.1 1.13-.19 1.58.03.78.37.95 1.51.72 2.41-.11.45-.29.89-.48 1.35-.23.56-.47 1.13-.58 1.75-.04.21-.05.42-.06.64v.22c0 .14 0 .29.02.43 0 .09.03.17.04.26.02.13.04.27.08.4.02.09.05.18.08.27.03.08.04.17.07.25-.71.67-1.5 1.28-2.34 1.81zm2.96-2.43c-.05-.17-.08-.34-.1-.51 0-.05-.01-.1-.02-.15-.01-.13-.02-.26-.02-.38v-.15c0-.17.02-.34.05-.5.1-.53.31-1.05.54-1.59.19-.47.39-.95.52-1.46.31-1.23.02-2.76-1.15-3.31-.08-.04-.17-.07-.25-.1-.03 0-.05-.01-.08-.02-.06-.02-.12-.03-.17-.04-.03 0-.07 0-.1-.01-.05 0-.1-.02-.15-.02h-.25c-.17 0-.34.01-.51.04-.17.02-.35.05-.52.08-.36.06-.71.12-1.03.1-1.02-.04-1.97-.85-2.16-1.86v-.06c-.02-.1-.03-.21-.03-.31 0-.05 0-.09.01-.14 0-.08 0-.16.02-.24.01-.07.04-.14.06-.21.01-.05.02-.11.04-.16.03-.08.07-.15.1-.23.02-.04.03-.08.05-.12.04-.08.09-.15.15-.23.02-.03.04-.07.06-.1.04-.05.09-.1.14-.15.04-.04.08-.09.12-.13.02-.02.05-.04.08-.06.17-.15.35-.27.56-.36.48-.21 1.03-.25 1.58-.24H41.46c.76 0 1.48-.06 2.16-.4.79-.42 1.47-1.39 1.16-2.37-.31-1-1.45-1.5-3.1-1.4-1.05.08-2.1.11-2.57-.57-.41-.59-.12-1.47.34-2.07.23-.31.51-.58.8-.87.36-.36.74-.73 1.03-1.18.12-.18.22-.36.3-.56.02-.03.03-.07.05-.1.01-.02.02-.05.03-.07 3.55 2.9 5.57 7.16 5.57 11.77 0 3.94-1.48 7.63-4.17 10.46z" opacity="1" data-original="#64238e" class=""></path></g></svg>