<svg xmlns="http://www.w3.org/2000/svg" version="1.1" xmlns:xlink="http://www.w3.org/1999/xlink" width="512" height="512" x="0" y="0" viewBox="0 0 512 512" style="enable-background:new 0 0 512 512" xml:space="preserve" class=""><g><path d="M256 0C114.624 0 0 114.624 0 256s114.624 256 256 256 256-114.624 256-256S397.376 0 256 0zm128 400c-149.984 0-272-122.016-272-272 0-8.832 7.168-16 16-16h59.072c8.832 0 16 7.168 16 16 0 27.648 6.016 53.984 17.888 78.24a15.84 15.84 0 0 1 .736 12.256 15.921 15.921 0 0 1-8.16 9.184l-23.872 11.52c19.872 34.592 48.544 63.296 83.104 83.104l11.52-23.84c1.856-3.84 5.152-6.752 9.184-8.16 4.032-1.376 8.448-1.12 12.256.736 24.32 11.872 50.624 17.888 78.24 17.888 8.832 0 16 7.168 16 16V384H400c0 8.832-7.168 16-16 16z" fill="#fff" opacity="1" data-original="#fff" class=""></path></g></svg>